<svg width="507" height="507" viewBox="0 0 507 507" fill="none" xmlns="http://www.w3.org/2000/svg">
<path d="M155.104 253.501C155.104 199.158 199.157 155.104 253.5 155.104C307.843 155.104 351.897 199.158 351.897 253.501C351.897 307.844 307.843 351.897 253.5 351.897C199.157 351.897 155.104 307.844 155.104 253.501Z" stroke="black" stroke-width="2"/>
<path d="M193.627 253.503C193.627 220.437 220.432 193.632 253.498 193.632C286.564 193.632 313.369 220.437 313.369 253.503C313.369 286.569 286.564 313.374 253.498 313.374C220.432 313.374 193.627 286.569 193.627 253.503Z" stroke="black" stroke-width="2"/>
<path d="M116.58 253.498C116.58 177.878 177.882 116.576 253.502 116.576C329.123 116.576 390.425 177.878 390.425 253.498C390.425 329.118 329.123 390.421 253.502 390.421C177.882 390.421 116.58 329.118 116.58 253.498Z" stroke="black" stroke-width="2"/>
<path d="M39.5237 253.503C39.5237 135.328 135.323 39.5285 253.498 39.5285C371.672 39.5285 467.472 135.328 467.472 253.503C467.472 371.677 371.672 467.477 253.498 467.477C135.323 467.477 39.5237 371.677 39.5237 253.503Z" stroke="black" stroke-width="2"/>
<path d="M78.0568 253.5C78.0568 156.603 156.608 78.0521 253.505 78.0521C350.402 78.0521 428.953 156.603 428.953 253.5C428.953 350.398 350.402 428.949 253.505 428.949C156.608 428.949 78.0568 350.398 78.0568 253.5Z" stroke="black" stroke-width="2"/>
<path d="M0.999917 253.5C0.999905 114.048 114.048 1.00003 253.5 1.00002C392.951 1.00001 505.999 114.048 505.999 253.5C506 392.952 392.952 506 253.5 506C114.048 506 0.999929 392.952 0.999917 253.5Z" stroke="black" stroke-width="2"/>
</svg>
