<svg width="231" height="245" viewBox="0 0 231 245" fill="none" xmlns="http://www.w3.org/2000/svg">
<path fill-rule="evenodd" clip-rule="evenodd" d="M216.845 80.0533C240.038 140.032 210.218 207.457 150.239 230.651C136.232 236.067 121.819 238.592 107.659 238.517V244.097C122.489 244.172 137.582 241.525 152.251 235.853C215.103 211.548 246.352 140.894 222.047 78.0415C197.742 15.1894 127.088 -16.0594 64.2355 8.24535C47.8099 14.5971 33.5426 24.1145 21.8613 35.8309L25.8065 39.776C36.9545 28.5935 50.5708 19.5099 66.2473 13.4478C126.226 -9.74589 193.651 20.0744 216.845 80.0533Z" fill="white"/>
<path fill-rule="evenodd" clip-rule="evenodd" d="M5.58349 118.142C7.60023 63.3131 52.685 19.4831 108.007 19.4831C108.356 19.4831 108.704 19.4849 109.053 19.4883V13.9102C108.704 13.9069 108.356 13.9052 108.007 13.9052C49.6041 13.9052 2.02156 60.2318 0.00195312 118.142H5.58349Z" fill="white"/>
<path fill-rule="evenodd" clip-rule="evenodd" d="M173.155 183.988C188.518 167.853 197.949 146.016 197.949 121.977C197.949 72.3024 157.68 32.0334 108.006 32.0334C58.3311 32.0334 18.062 72.3024 18.062 121.977C18.062 146.814 28.1293 169.3 44.4058 185.576L40.4617 189.521C23.1757 172.235 12.4841 148.354 12.4841 121.977C12.4841 69.2219 55.2505 26.4555 108.006 26.4555C160.76 26.4555 203.527 69.2219 203.527 121.977C203.527 147.556 193.472 170.787 177.1 187.934L173.155 183.988Z" fill="white"/>
<path fill-rule="evenodd" clip-rule="evenodd" d="M108.703 198.67C108.471 198.672 108.238 198.673 108.006 198.673C65.6475 198.673 31.3096 164.335 31.3096 121.977C31.3096 79.6188 65.6475 45.2809 108.006 45.2809C129.362 45.2809 148.679 54.0097 162.585 68.0943L166.53 64.1501C151.614 49.0561 130.902 39.703 108.006 39.703C62.567 39.703 25.7317 76.5382 25.7317 121.977C25.7317 167.415 62.567 204.251 108.006 204.251C108.238 204.251 108.471 204.25 108.703 204.248V198.67Z" fill="white"/>
<path fill-rule="evenodd" clip-rule="evenodd" d="M65.5922 75.7288C53.0909 87.1996 45.2542 103.673 45.2542 121.977C45.2542 156.633 73.3489 184.728 108.005 184.728C125.866 184.728 141.983 177.267 153.411 165.291L157.356 169.236C144.918 182.221 127.406 190.306 108.005 190.306C70.2683 190.306 39.6763 159.714 39.6763 121.977C39.6763 102.133 48.1355 84.2645 61.6446 71.7813L65.5922 75.7288Z" fill="white"/>
<path fill-rule="evenodd" clip-rule="evenodd" d="M135.122 94.8607C128.182 87.9211 118.595 83.6289 108.005 83.6289C86.8265 83.6289 69.6575 100.798 69.6575 121.977C69.6575 143.04 86.6384 160.136 107.657 160.323V165.901C83.5578 165.714 64.0796 146.12 64.0796 121.977C64.0796 97.7173 83.7459 78.051 108.005 78.051C120.135 78.051 131.117 82.9675 139.066 90.9166L135.122 94.8607Z" fill="white"/>
<path fill-rule="evenodd" clip-rule="evenodd" d="M164.465 120.582C163.724 90.0358 138.73 65.5007 108.005 65.5007V71.0786C135.649 71.0786 158.146 93.1168 158.885 120.582H164.465Z" fill="white"/>
</svg>
